<svg width="16" height="11" viewBox="0 0 16 11" xmlns="http://www.w3.org/2000/svg"><title>ico-youtube</title><path d="M6.451 7.529V3.134l4.053 2.205-4.053 2.19zm8.899-5.156s-.147-1.078-.596-1.552c-.57-.624-1.21-.626-1.503-.663C11.15 0 8.003 0 8.003 0h-.006S4.848 0 2.749.158c-.293.037-.932.04-1.503.663C.796 1.295.65 2.373.65 2.373S.5 3.639.5 4.904v1.187c0 1.265.15 2.53.15 2.53s.146 1.078.596 1.553c.57.623 1.32.604 1.654.669C4.1 10.963 8 11 8 11s3.152-.005 5.25-.163c.294-.037.933-.04 1.504-.663.45-.475.596-1.552.596-1.552s.15-1.266.15-2.531V4.904c0-1.265-.15-2.531-.15-2.531z" fill="#FFF" fill-rule="evenodd"/></svg>