<svg xmlns="http://www.w3.org/2000/svg" viewBox="0 0 196 152" xmlns:xlink="http://www.w3.org/1999/xlink"><defs><path id="a" d="M2.54 68.08c-1.403.74-2.54.045-2.54-1.535V2.83C0 1.242 1.142.558 2.54 1.296l60.733 32.05c1.403.742 1.397 1.944 0 2.682L2.54 68.078zm19.363 18.608c1.407.742 2.547.064 2.547-1.53V65.1c0-1.586-1.13-2.276-2.547-1.528L2.547 73.784c-1.406.743-1.417 1.94 0 2.69l19.356 10.214z"/><path id="b" d="M7.372 76.622c-1.403.74-2.54.046-2.54-1.534V11.373c0-1.587 1.142-2.272 2.54-1.534l60.733 32.05c1.403.74 1.397 1.944 0 2.68L7.372 76.623zm19.363 18.61c1.407.74 2.547.063 2.547-1.53v-20.06c0-1.587-1.13-2.277-2.547-1.53L7.38 82.328c-1.407.743-1.418 1.94 0 2.69L26.734 95.23z"/></defs><g fill="none" fill-rule="evenodd"><g transform="translate(66 -1)"><use fill="#00C1B6" xlink:href="#a"/><use fill="#FFF" xlink:href="#b"/></g><path fill="#FFF" d="M.76 125v21H4.3v-6.33h4.83c5.28 0 8.31-2.76 8.31-7.5 0-4.56-3.03-7.17-8.31-7.17H.76zm3.54 3.18h4.68c3.24 0 5.07 1.32 5.07 4.08 0 2.85-1.83 4.23-5.07 4.23H4.3v-8.31zm24.078 1.74c-4.74.03-8.07 3.3-8.07 8.13 0 4.8 3.24 8.07 8.16 8.07 2.76 0 5.04-.99 6.6-2.7l-1.83-1.95c-1.17 1.2-2.76 1.86-4.5 1.86-2.52 0-4.41-1.53-4.95-3.99h12.06c.42-5.76-1.86-9.42-7.47-9.42zm-4.65 6.9c.39-2.55 2.16-4.14 4.68-4.14 2.61 0 4.32 1.56 4.44 4.14h-9.12zm20.237-6.78h-3.45V146h3.45v-8.34c.27-2.73 2.31-4.62 5.52-4.44v-3.3c-2.52 0-4.44 1.14-5.52 3.3v-3.18zm14.208-.15c-3.06 0-5.88 1.38-5.88 4.62-.03 5.76 8.37 3.93 8.37 7.2 0 1.2-1.14 1.71-2.61 1.71-1.74 0-3.96-.75-5.34-1.98l-1.23 2.46c1.59 1.44 4.08 2.22 6.42 2.22 3.21 0 6.12-1.47 6.12-4.74.03-5.79-8.46-4.2-8.46-7.14 0-1.14.99-1.59 2.34-1.59 1.41 0 3.18.54 4.59 1.41l1.26-2.55c-1.44-1.02-3.57-1.62-5.58-1.62zm19.578.03c-2.49 0-4.41 1.02-5.58 2.88v-2.76h-3.45v21.78h3.45v-8.58c1.17 1.86 3.09 2.88 5.64 2.88 4.56 0 7.56-3.27 7.56-8.04 0-4.86-3.09-8.16-7.62-8.16zm-.72 13.26c-2.85 0-4.86-2.13-4.86-5.22 0-3 2.01-5.16 4.86-5.16 2.85 0 4.86 2.19 4.86 5.16 0 3.06-2.01 5.22-4.86 5.22zm19.58-13.26c-4.74.03-8.07 3.3-8.07 8.13 0 4.8 3.24 8.07 8.16 8.07 2.76 0 5.04-.99 6.6-2.7l-1.83-1.95c-1.17 1.2-2.76 1.86-4.5 1.86-2.52 0-4.41-1.53-4.95-3.99h12.06c.42-5.76-1.86-9.42-7.47-9.42zm-4.65 6.9c.39-2.55 2.16-4.14 4.68-4.14 2.61 0 4.32 1.56 4.44 4.14h-9.12zm23.326-6.9c-4.74 0-8.04 3.3-8.04 8.13 0 4.8 3.3 8.07 8.04 8.07 3.03 0 5.34-1.08 6.78-2.97l-1.92-1.92c-1.08 1.26-2.7 1.92-4.71 1.92-2.76 0-4.74-2.07-4.74-5.1s1.98-5.1 4.74-5.1c1.92-.03 3.45.66 4.56 1.8l1.89-2.22c-1.47-1.68-3.72-2.61-6.6-2.61zm19.608 12.42c-.93.45-1.68.69-2.4.69-1.08 0-1.71-.51-1.71-2.16v-7.65h4.71v-2.58h-4.71v-4.38h-3.42v4.38h-2.25v2.58h2.25v8.28c0 3.27 2.07 4.65 4.47 4.65 1.35 0 2.67-.42 3.93-1.17l-.87-2.64zm6.828-18.96c-1.14 0-2.01.87-2.01 2.1 0 1.2.87 2.07 2.01 2.07 1.14 0 2.01-.87 2.01-2.07 0-1.23-.87-2.1-2.01-2.1zm1.71 22.62v-15.96h-3.42V146h3.42zm13.397 0l6.12-15.96h-3.45l-4.38 12.57-4.44-12.57h-3.6l6.18 15.96h3.57zm15.557-16.08c-4.74.03-8.07 3.3-8.07 8.13 0 4.8 3.24 8.07 8.16 8.07 2.76 0 5.04-.99 6.6-2.7l-1.83-1.95c-1.17 1.2-2.76 1.86-4.5 1.86-2.52 0-4.41-1.53-4.95-3.99h12.06c.42-5.76-1.86-9.42-7.47-9.42zm-4.65 6.9c.39-2.55 2.16-4.14 4.68-4.14 2.61 0 4.32 1.56 4.44 4.14h-9.12zm21.558-6.93c-3.06 0-5.88 1.38-5.88 4.62-.03 5.76 8.37 3.93 8.37 7.2 0 1.2-1.14 1.71-2.61 1.71-1.74 0-3.96-.75-5.34-1.98l-1.23 2.46c1.59 1.44 4.08 2.22 6.42 2.22 3.21 0 6.12-1.47 6.12-4.74.03-5.79-8.46-4.2-8.46-7.14 0-1.14.99-1.59 2.34-1.59 1.41 0 3.18.54 4.59 1.41l1.26-2.55c-1.44-1.02-3.57-1.62-5.58-1.62z"/></g></svg>