<svg width="15" height="12" viewBox="0 0 15 12" xmlns="http://www.w3.org/2000/svg"><title>ico-twitter</title><path d="M15 1.42a6.235 6.235 0 0 1-1.768.477A3.047 3.047 0 0 0 14.586.221a6.231 6.231 0 0 1-1.955.736A3.097 3.097 0 0 0 10.385 0c-1.7 0-3.077 1.356-3.077 3.03 0 .237.027.468.08.69A8.783 8.783 0 0 1 1.043.554a2.981 2.981 0 0 0-.416 1.523c0 1.051.543 1.979 1.368 2.522A3.099 3.099 0 0 1 .603 4.22v.038c0 1.468 1.06 2.692 2.468 2.97a3.129 3.129 0 0 1-1.39.053 3.075 3.075 0 0 0 2.875 2.104A6.237 6.237 0 0 1 .734 10.68 6.36 6.36 0 0 1 0 10.638 8.813 8.813 0 0 0 4.718 12c5.66 0 8.755-4.616 8.755-8.62a8.38 8.38 0 0 0-.009-.392A6.188 6.188 0 0 0 15 1.42" fill="#FFF" fill-rule="evenodd"/></svg>