<svg width="126" height="150" viewBox="0 0 126 150" xmlns="http://www.w3.org/2000/svg" xmlns:xlink="http://www.w3.org/1999/xlink"><title>Logo</title><defs><path d="M47.238 86.707c-.898.47-1.625.029-1.625-.989V45.244c0-1.017.73-1.458 1.625-.99l38.87 20.375c.897.47.893 1.235 0 1.704l-38.87 20.374zm12.392 11.83c.9.471 1.63.04 1.63-.98V84.82c0-1.013-.733-1.45-1.63-.98l-12.387 6.494c-.9.472-.897 1.239 0 1.709l12.387 6.493z" id="a"/></defs><g fill="none" fill-rule="evenodd"><path d="M.766 117.934v13.44h2.266v-4.05h3.091c3.38 0 5.319-1.767 5.319-4.8 0-2.92-1.94-4.59-5.319-4.59H.766zm2.266 2.036h2.995c2.074 0 3.245.844 3.245 2.61 0 1.825-1.171 2.708-3.245 2.708H3.032v-5.318zm15.41 1.113c-3.034.02-5.165 2.112-5.165 5.203 0 3.072 2.074 5.165 5.222 5.165 1.767 0 3.226-.633 4.224-1.728l-1.17-1.248c-.75.768-1.767 1.19-2.88 1.19-1.614 0-2.823-.979-3.169-2.553h7.719c.268-3.686-1.19-6.029-4.781-6.029zm-2.976 4.416c.25-1.632 1.382-2.65 2.995-2.65 1.67 0 2.765.999 2.842 2.65h-5.837zm12.952-4.34H26.21v10.215h2.208v-5.337c.173-1.747 1.478-2.957 3.533-2.842v-2.112c-1.613 0-2.842.73-3.533 2.112v-2.035zm9.093-.095c-1.959 0-3.763.883-3.763 2.957-.02 3.686 5.356 2.515 5.356 4.608 0 .768-.73 1.094-1.67 1.094-1.114 0-2.534-.48-3.418-1.267l-.787 1.574c1.018.922 2.611 1.421 4.109 1.421 2.054 0 3.917-.94 3.917-3.033.019-3.706-5.415-2.688-5.415-4.57 0-.73.634-1.018 1.498-1.018.902 0 2.035.346 2.938.903l.806-1.632c-.922-.653-2.285-1.037-3.571-1.037zm12.53.02c-1.594 0-2.823.652-3.572 1.842v-1.766h-2.208v13.94h2.208v-5.492c.75 1.19 1.978 1.843 3.61 1.843 2.918 0 4.838-2.093 4.838-5.145 0-3.11-1.977-5.223-4.876-5.223zm-.461 8.486c-1.824 0-3.11-1.364-3.11-3.341 0-1.92 1.286-3.303 3.11-3.303 1.824 0 3.11 1.402 3.11 3.303 0 1.958-1.286 3.34-3.11 3.34zm12.53-8.487c-3.034.02-5.165 2.112-5.165 5.203 0 3.072 2.073 5.165 5.222 5.165 1.766 0 3.226-.633 4.224-1.728l-1.171-1.248c-.749.768-1.767 1.19-2.88 1.19-1.613 0-2.823-.979-3.168-2.553h7.718c.27-3.686-1.19-6.029-4.78-6.029zm-2.977 4.416c.25-1.632 1.383-2.65 2.996-2.65 1.67 0 2.764.999 2.841 2.65h-5.837zm14.93-4.416c-3.033 0-5.145 2.112-5.145 5.203 0 3.072 2.112 5.165 5.145 5.165 1.94 0 3.418-.691 4.34-1.9l-1.23-1.23c-.69.807-1.727 1.23-3.014 1.23-1.766 0-3.033-1.325-3.033-3.265 0-1.939 1.267-3.264 3.033-3.264 1.229-.019 2.208.423 2.919 1.152l1.21-1.42c-.942-1.076-2.382-1.67-4.225-1.67zm12.55 7.949c-.596.288-1.076.442-1.537.442-.691 0-1.094-.327-1.094-1.383v-4.896h3.014v-1.651h-3.014v-2.803h-2.19v2.803h-1.44v1.651h1.44v5.3c0 2.092 1.326 2.975 2.862 2.975.864 0 1.709-.268 2.515-.748l-.557-1.69zm4.369-12.134c-.73 0-1.287.556-1.287 1.344 0 .768.557 1.324 1.287 1.324.73 0 1.286-.556 1.286-1.324 0-.788-.557-1.344-1.286-1.344zm1.094 14.476V121.16h-2.189v10.214h2.19zm8.575 0l3.917-10.214h-2.208l-2.804 8.045-2.841-8.045H94.41l3.955 10.214h2.285zm9.957-10.29c-3.034.018-5.165 2.111-5.165 5.202 0 3.072 2.074 5.165 5.222 5.165 1.767 0 3.226-.633 4.224-1.728l-1.17-1.248c-.75.768-1.767 1.19-2.88 1.19-1.614 0-2.823-.979-3.169-2.553h7.719c.268-3.686-1.19-6.029-4.781-6.029zm-2.976 4.415c.25-1.632 1.382-2.65 2.995-2.65 1.67 0 2.765.999 2.842 2.65h-5.837zm13.797-4.435c-1.959 0-3.764.883-3.764 2.957-.019 3.686 5.357 2.515 5.357 4.608 0 .768-.73 1.094-1.67 1.094-1.114 0-2.535-.48-3.418-1.267l-.787 1.574c1.018.922 2.611 1.421 4.109 1.421 2.054 0 3.917-.94 3.917-3.033.019-3.706-5.415-2.688-5.415-4.57 0-.73.634-1.018 1.498-1.018.902 0 2.035.346 2.937.903L125 122.1c-.922-.653-2.285-1.037-3.571-1.037zm-63.84 18.072c-2.981 0-5.3 2.203-5.3 5.068 0 2.895 2.29 5.127 5.242 5.127 1.426 0 2.88-.648 3.903-1.656l-1.008-1.123c-.764.734-1.8 1.195-2.808 1.195-2.016 0-3.6-1.57-3.6-3.557 0-1.987 1.584-3.542 3.6-3.542 1.022 0 2.073.49 2.808 1.281l.993-1.238c-.979-.965-2.405-1.555-3.83-1.555zm9.339 2.404c-2.376 0-4.003 1.57-4.003 3.888 0 2.304 1.627 3.888 4.003 3.888 2.362 0 3.989-1.584 3.989-3.888 0-2.318-1.627-3.888-3.989-3.888zm0 1.426c1.368 0 2.333 1.008 2.333 2.477 0 1.483-.965 2.49-2.333 2.49-1.382 0-2.347-1.007-2.347-2.49 0-1.47.965-2.477 2.347-2.477zm8.245 6.293v-10.685h-1.656v10.685h1.656zm5.048 0v-10.685h-1.656v10.685h1.656zm6.473-7.719c-2.275.015-3.873 1.584-3.873 3.903 0 2.304 1.555 3.873 3.917 3.873 1.324 0 2.419-.475 3.168-1.296l-.879-.936a2.978 2.978 0 0 1-2.16.893c-1.21 0-2.117-.734-2.376-1.915h5.789c.202-2.765-.893-4.522-3.586-4.522zm-2.232 3.312c.188-1.224 1.037-1.987 2.247-1.987 1.253 0 2.073.749 2.131 1.987h-4.378zm11.485-3.312c-2.275 0-3.859 1.584-3.859 3.903 0 2.304 1.584 3.873 3.86 3.873 1.454 0 2.562-.518 3.254-1.425l-.922-.922c-.518.605-1.296.922-2.26.922-1.326 0-2.276-.994-2.276-2.448 0-1.455.95-2.448 2.275-2.448.922-.015 1.656.317 2.189.864l.907-1.066c-.705-.806-1.785-1.253-3.168-1.253zm9.7 5.962c-.447.216-.807.331-1.153.331-.518 0-.82-.245-.82-1.037v-3.672h2.26v-1.238h-2.26v-2.102h-1.642v2.102h-1.08v1.238h1.08v3.975c0 1.57.994 2.232 2.146 2.232.648 0 1.281-.202 1.886-.562l-.418-1.267zm3.564-9.1c-.547 0-.965.417-.965 1.007 0 .576.418.994.965.994.547 0 .965-.418.965-.994 0-.59-.418-1.008-.965-1.008zm.821 10.857v-7.661h-1.642v7.66h1.642zm6.243-9.317c.346 0 .735.13 1.051.36l.634-1.267c-.49-.36-1.109-.533-1.728-.533-1.325 0-2.635.85-2.635 2.635v.749h-1.008v1.238h1.008v6.135h1.641v-6.135h2.002v-1.238h-2.002v-.907c0-.72.476-1.037 1.037-1.037z" fill-opacity=".5" fill="#FFF"/><path d="M44.145 81.277c-.897.47-1.625.028-1.625-.99V39.813c0-1.017.731-1.458 1.625-.99l38.87 20.375c.897.47.894 1.235 0 1.704l-38.87 20.375zm12.393 11.829c.9.471 1.63.04 1.63-.98V79.389c0-1.013-.734-1.45-1.63-.98L44.15 84.904c-.9.472-.896 1.24 0 1.71l12.388 6.493z" fill="#7F7480"/><use fill="#9C919D" xlink:href="#a"/><path d="M27.44 14h6.208v-1.136h-4.88V9.056h3.984V7.92h-3.984V4.624h4.72v-1.12H27.44V14zM32.64.912h-1.504l-1.408 1.792h1.104L32.64.912zm3.113 9.216c0 2.592 1.264 4.064 3.216 4.064.912 0 1.744-.512 2.352-1.104h.048l.112.912h1.088V2.608h-1.328V5.6l.064 1.328c-.688-.56-1.28-.896-2.176-.896-1.776 0-3.376 1.568-3.376 4.096zm1.36-.016c0-1.776.992-2.976 2.24-2.976.64 0 1.232.224 1.888.816v4.064c-.64.72-1.264 1.072-1.984 1.072-1.36 0-2.144-1.12-2.144-2.976zm9.322-5.488c.512 0 .912-.352.912-.848 0-.512-.4-.848-.912-.848s-.912.336-.912.848c0 .496.4.848.912.848zM45.763 14h1.312V6.224h-1.312V14zm4.73-2.4c0 1.536.56 2.592 2.223 2.592.48 0 1.008-.144 1.44-.288l-.256-.992c-.256.096-.608.208-.88.208-.896 0-1.2-.544-1.2-1.504v-4.32h2.096V6.224H51.82V4.048h-1.104l-.16 2.176-1.216.08v.992h1.152V11.6zm5.017-1.472c0 2.544 1.648 4.064 3.728 4.064 1.056 0 1.888-.368 2.56-.8l-.464-.864c-.576.368-1.2.608-1.936.608-1.488 0-2.496-1.056-2.592-2.736h5.248c.032-.192.048-.448.048-.72 0-2.224-1.12-3.648-3.104-3.648-1.776 0-3.488 1.552-3.488 4.096zm1.28-.592c.16-1.568 1.152-2.464 2.24-2.464 1.216 0 1.92.88 1.92 2.464h-4.16zm3.984-6.96h-1.36l-1.456 2.256h1.008l1.808-2.256zm8.899 10.72c.72.56 1.44.896 2.16.896 1.776 0 3.36-1.552 3.36-4.192 0-2.416-1.072-3.968-3.072-3.968-.912 0-1.776.496-2.48 1.088h-.048l-.112-.896h-1.088V17.28h1.312v-2.624l-.032-1.36zm.032-1.024v-4.08c.768-.688 1.424-1.056 2.08-1.056 1.472 0 2.048 1.152 2.048 2.864 0 1.92-.944 3.088-2.224 3.088-.512 0-1.2-.224-1.904-.816zm7.53-.288c0 1.392.975 2.208 2.287 2.208.96 0 1.824-.512 2.576-1.12h.032l.112.928h1.088V9.232c0-1.936-.8-3.2-2.704-3.2-1.248 0-2.336.544-3.056 1.008l.528.912c.608-.416 1.408-.832 2.32-.832 1.264 0 1.6.96 1.6 1.952-3.312.368-4.784 1.216-4.784 2.912zm1.295-.096c0-.992.88-1.632 3.488-1.952v2.16c-.752.672-1.376 1.04-2.128 1.04-.768 0-1.36-.368-1.36-1.248zM86.38 14h1.312V9.008c.528-1.312 1.312-1.792 1.968-1.792.32 0 .496.048.752.128l.256-1.152a1.931 1.931 0 0 0-.832-.16c-.88 0-1.68.624-2.208 1.6h-.048l-.112-1.408H86.38V14z" fill-opacity=".5" fill="#FFF"/></g></svg>